# xmcd
#
# Track frame offsets: 
#        150
#        18780
#        34460
#        62379
#        91405
#        112211
#        129932
#        144642
#        180639
#
# Disc length: 2851 seconds
#
# Revision: 0
# Processed by: cddbd v1.5.2PL0 Copyright (c) Steve Scherf et al.
# Submitted via: ExactAudioCopyFreeDBPlugin 1.0
#
DISCID=760b2109
DTITLE=One Way Feat Al Hudson - One Way Feat Al Hudson
DYEAR=2012
DGENRE=Soul
TTITLE0=I'm In Love With Lovin' You
TTITLE1=Copy This
TTITLE2=Something In The Past
TTITLE3=Do Your Thang
TTITLE4=I Wanna Be With You
TTITLE5=Let's Go Out Tonite
TTITLE6=You're The One
TTITLE7=Pop It
TTITLE8=Tonight (Full Length Version)
EXTD=
EXTT0=
EXTT1=
EXTT2=
EXTT3=
EXTT4=
EXTT5=
EXTT6=
EXTT7=
EXTT8=
PLAYORDER=
